# xmcd CD database file
#
# Track frame offsets:
#	150
#	14960
#	34430
#	54345
#	71307
#	88350
#	105300
#	124642
#	142887
#	160522
#	180245
#	202825
#	223335
#	241385
#	261582
#
# Disc length: 3748 seconds
#
# Revision: 0
# Processed by: cddbd v1.5PL3 Copyright (c) Steve Scherf et al.
# Submitted via: CDex 1.50beta9
#
DISCID=d30ea20f
DTITLE=田村英里子 - ディスカバリー
DYEAR=1900
DGENRE=Pop
TTITLE0=真剣
TTITLE1=リバーシブル
TTITLE2=虹色の涙
TTITLE3=リトル・ダーリン
TTITLE4=誘惑のチャチャ
TTITLE5=Domino
TTITLE6=好きよ
TTITLE7=連れてって
TTITLE8=プロセス
TTITLE9=冷たくしないで
TTITLE10=街路樹のafternoon
TTITLE11=虹の島から
TTITLE12=私はそよ風
TTITLE13=涙の半分
TTITLE14=ロコモーション・ドリーム
EXTD=
EXTT0=
EXTT1=
EXTT2=
EXTT3=
EXTT4=
EXTT5=
EXTT6=
EXTT7=
EXTT8=
EXTT9=
EXTT10=
EXTT11=
EXTT12=
EXTT13=
EXTT14=
PLAYORDER=
